<svg xmlns="http://www.w3.org/2000/svg" width="75" height="75" viewBox="0 0 75 75"><defs><style>.a{fill:none;}.b{fill:#b00f00;}</style></defs><path class="a" d="M0,0H75V75H0Z"/><path class="b" d="M68.205,50.457A43.865,43.865,0,0,1,54.673,48.31a3.746,3.746,0,0,0-3.872.92l-6.018,7.552A58.2,58.2,0,0,1,18.372,30.6l7.475-6.363a3.912,3.912,0,0,0,.92-3.91A42.751,42.751,0,0,1,24.62,6.795,3.829,3.829,0,0,0,20.825,3H7.562C5.492,3,3,3.92,3,6.8,3,42.407,32.632,72,68.205,72,70.927,72,72,69.585,72,67.477V54.252a3.829,3.829,0,0,0-3.795-3.795Z"/></svg>