<svg xmlns="http://www.w3.org/2000/svg" width="20" height="20" viewBox="0 0 20 20"><defs><style>.a{fill:#f3f2f2;}</style></defs><g transform="translate(-1222 -1909)"><g transform="translate(1207 1894)"><g transform="translate(15 15)"><path class="a" d="M17.071,2.929A10,10,0,0,0,2.929,17.071,10,10,0,0,0,17.071,2.929ZM10,18.828A8.828,8.828,0,1,1,18.828,10,8.838,8.838,0,0,1,10,18.828Z" transform="translate(0 0)"/></g></g><g transform="translate(1226.66 1913.167)"><path class="a" d="M130.973,128.026a.664.664,0,0,0-.875.343,4.672,4.672,0,1,1-.01-3.759.664.664,0,0,0,1.214-.538,6,6,0,1,0,.013,4.83A.664.664,0,0,0,130.973,128.026Z" transform="translate(-119.815 -120.5)"/></g></g></svg>