<?xml version="1.0" encoding="iso-8859-1"?>
<!-- Generator: Adobe Illustrator 18.1.1, SVG Export Plug-In . SVG Version: 6.00 Build 0)  -->
<svg version="1.1" id="Capa_1" xmlns="http://www.w3.org/2000/svg" xmlns:xlink="http://www.w3.org/1999/xlink" x="0px" y="0px"
	 viewBox="0 0 186.238 186.238" style="enable-background:new 0 0 186.238 186.238;" xml:space="preserve">
<g>
	<path style="fill:#010002;" d="M141.483,135.329l-3.353,3.389l-2.59-2.596c0.722-0.674,1.486-1.283,2.184-1.981
		c30.64-30.64,30.64-80.493,0-111.145C122.89,8.163,103.158,0,82.172,0c-20.997,0-40.73,8.163-55.575,23.008
		c-30.64,30.64-30.646,80.493-0.012,111.133c14.846,14.84,34.578,23.008,55.569,23.008c18.396,0,35.825-6.283,49.847-17.811
		l2.763,2.763l-3.353,3.371l41.142,40.766l10.072-10.174L141.483,135.329z M29.974,130.776C1.202,102.004,1.208,55.176,29.98,26.403
		C43.925,12.465,62.464,4.785,82.184,4.785c19.709,0,38.248,7.667,52.186,21.606c28.772,28.784,28.772,75.612,0,104.384
		c-13.939,13.939-32.478,21.618-52.204,21.618C62.446,152.394,43.913,144.714,29.974,130.776z M125.104,67.235
		c-1.939-14.577-9.971-25.234-19.87-25.234h-46.13c-9.899,0-17.93,10.633-19.876,25.234c-7.083,3.61-10.806,11.015-10.806,19.649
		c0,6.629,2.226,12.507,6.426,16.546v13.837H51.95v-8.348h60.432v8.348h17.095V103.43c4.201-4.052,6.426-9.917,6.426-16.546
		C135.916,78.25,132.193,70.851,125.104,67.235z M59.104,47.144h46.13c6.51,0,12.202,7.703,14.309,18.145
		c-1.05-0.197-2.208-0.257-3.353-0.316c0-0.048,0.012-0.084,0.012-0.125c0-6.05-4.923-10.979-10.979-10.979
		c-6.044,0-10.967,4.929-10.967,10.979h-44.71c-1.689,0-3.27,0.161-4.768,0.442C46.908,54.847,52.601,47.144,59.104,47.144z
		 M112.794,64.848H97.692c0-4.159,3.389-7.566,7.548-7.566C109.405,57.282,112.794,60.683,112.794,64.848z M47.004,94.05
		c-3.95,0-7.16-3.204-7.16-7.166c0-3.95,3.21-7.154,7.16-7.154c3.956,0,7.166,3.204,7.166,7.154
		C54.17,90.846,50.96,94.05,47.004,94.05z M102.967,92.767H61.366c-0.949,0-1.712-0.758-1.712-1.701
		c0-0.943,0.764-1.712,1.712-1.712h41.601c0.949,0,1.712,0.77,1.712,1.712S103.922,92.767,102.967,92.767z M102.967,86.502H61.366
		c-0.949,0-1.712-0.77-1.712-1.701c0-0.955,0.764-1.712,1.712-1.712h41.601c0.949,0,1.712,0.758,1.712,1.712
		C104.685,85.732,103.922,86.502,102.967,86.502z M117.347,94.05c-3.956,0-7.166-3.204-7.166-7.166c0-3.95,3.21-7.154,7.166-7.154
		c3.956,0,7.16,3.204,7.16,7.154C124.507,90.846,121.297,94.05,117.347,94.05z"/>
</g>
<g>
</g>
<g>
</g>
<g>
</g>
<g>
</g>
<g>
</g>
<g>
</g>
<g>
</g>
<g>
</g>
<g>
</g>
<g>
</g>
<g>
</g>
<g>
</g>
<g>
</g>
<g>
</g>
<g>
</g>
</svg>
