<svg xmlns="http://www.w3.org/2000/svg" width="260" height="260" viewBox="0 0 260 260"><defs><style>.a{fill:#df7477;}.b{fill:#fff;}</style></defs><g transform="translate(-1174 -1137)"><circle class="a" cx="130" cy="130" r="130" transform="translate(1174 1137)"/><g transform="translate(1189.005 1177)"><g transform="translate(39.995)"><path class="b" d="M118.029,12.078V3a3,3,0,1,0-6,0v9.075A75,75,0,0,0,40,87.219v.042a3,3,0,0,0,6,0A15.016,15.016,0,0,1,60.945,72.21H61A15.016,15.016,0,0,1,76,87.156a2.993,2.993,0,0,0,4.167,2.76,2.29,2.29,0,0,0,.252-.171,3.921,3.921,0,0,0,1.338-1.428,3.114,3.114,0,0,0,.1-.507,2.989,2.989,0,0,0,.132-.654A15,15,0,0,1,96.941,72.1h.051a15.025,15.025,0,0,1,2.982.3c.237.048.459.15.69.207a15.092,15.092,0,0,1,2.118.657c.255.108.486.27.735.393A9.961,9.961,0,0,1,106.6,75.69c.318.267.666.5.96.792a15.023,15.023,0,0,1,1.842,2.223,14.722,14.722,0,0,1,1.065,1.95c.1.2.234.39.324.6a14.98,14.98,0,0,1,.681,2.169c.054.216.153.42.2.642a15.093,15.093,0,0,1,.3,3l.246,72a21,21,0,0,0,21,20.929h.114a21.025,21.025,0,0,0,20.929-21.073l-.021-6a3,3,0,0,0-6,0l.021,6a15.007,15.007,0,0,1-30.013.114v-.033L118,87a15.015,15.015,0,0,1,14.95-15.055c.174,0,.336.042.507.045a14.883,14.883,0,0,1,10.1,4.314c.12.12.207.264.321.387a13.649,13.649,0,0,1,2.856,4.272c0,.03.036.06.048.09a14.844,14.844,0,0,1,.81,2.556c.024.093.066.18.087.276a14.88,14.88,0,0,1,.318,3,3,3,0,0,0,3,3,3.03,3.03,0,0,0,1.167-.24,2.287,2.287,0,0,0,.252-.171,3.92,3.92,0,0,0,1.338-1.428,3.113,3.113,0,0,0,.1-.507,2.989,2.989,0,0,0,.132-.654,15.015,15.015,0,0,1,14.95-15.055h.054a15.016,15.016,0,0,1,15,14.95,3,3,0,1,0,6,0A75.081,75.081,0,0,0,118.029,12.078ZM76.6,73.2c-.276-.3-.522-.621-.813-.9A20.848,20.848,0,0,0,61,66.2h-.075A20.911,20.911,0,0,0,47.9,70.788a69,69,0,0,1,48.557-50.21C86.116,31,78.7,50.1,76.6,73.2Zm70.062-2.172c-.255-.219-.513-.435-.777-.645s-.513-.381-.774-.567-.561-.4-.849-.582-.522-.3-.783-.465c-.3-.18-.624-.363-.942-.528-.234-.12-.477-.225-.717-.336-.366-.171-.729-.345-1.1-.492-.153-.063-.315-.111-.474-.168a20.457,20.457,0,0,0-6.777-1.284c-.156,0-.3-.024-.468-.024h-.072a21.114,21.114,0,0,0-2.547.18l.012.009c-.222.027-.441.066-.66.1-.663.105-1.32.24-1.965.405-.171.045-.342.081-.51.129a20.69,20.69,0,0,0-4.641,1.959c-.129.072-.252.15-.378.225q-.882.531-1.713,1.152c-.147.108-.3.213-.435.324a21.86,21.86,0,0,0-1.7,1.476c-.054.054-.114.1-.168.156s-.078.066-.114.1a22.031,22.031,0,0,0-1.5,1.716c-.036.048-.081.09-.12.138a21.364,21.364,0,0,0-1.5,2.178,22.051,22.051,0,0,0-3.159-4c-.033-.033-.072-.063-.108-.1l-.132-.123a21.829,21.829,0,0,0-1.728-1.5c-.144-.111-.3-.213-.438-.321q-.828-.6-1.707-1.134l-.384-.228a20.79,20.79,0,0,0-4.632-1.926c-.168-.048-.342-.084-.513-.126q-.966-.243-1.956-.4c-.219-.033-.438-.069-.66-.1a20.916,20.916,0,0,0-2.535-.168h-.072a20.45,20.45,0,0,0-2.511.174c-.234.03-.462.066-.693.1q-.975.153-1.923.4c-.177.045-.354.081-.528.129a20.713,20.713,0,0,0-2.259.786c-.174.072-.339.156-.51.231q-.873.387-1.7.852c-.192.105-.384.21-.573.324A20.945,20.945,0,0,0,84.3,70.389l-.066.054q-.7.543-1.365,1.143C86.194,41.351,99.428,18.055,114.761,18h.051c15.322,0,28.678,23.185,32.251,53.36C146.938,71.244,146.8,71.142,146.665,71.031Zm22.264-5.214.012.012a20.917,20.917,0,0,0-15.631,7.134c-2.25-23.1-9.819-42.185-20.251-52.532a69.245,69.245,0,0,1,48.9,49.874A21.18,21.18,0,0,0,168.928,65.817Z" transform="translate(-39.995)"/></g></g></g></svg>