<svg xmlns="http://www.w3.org/2000/svg" width="43" height="43" viewBox="0 0 43 43"><defs><style>.a{fill:#f3f2f2;}</style></defs><g transform="translate(259 -587)"><path class="a" d="M42.871,12.636a15.785,15.785,0,0,0-1-5.219,10.537,10.537,0,0,0-2.48-3.808,10.54,10.54,0,0,0-3.808-2.481,15.782,15.782,0,0,0-5.219-1C28.071.025,27.339,0,21.5,0s-6.571.025-8.864.129a15.786,15.786,0,0,0-5.219,1,10.537,10.537,0,0,0-3.808,2.48A10.539,10.539,0,0,0,1.128,7.416a15.783,15.783,0,0,0-1,5.219C.025,14.928,0,15.661,0,21.5s.025,6.572.13,8.865a15.781,15.781,0,0,0,1,5.219,10.536,10.536,0,0,0,2.48,3.808,10.535,10.535,0,0,0,3.808,2.48,15.776,15.776,0,0,0,5.219,1c2.293.1,3.025.129,8.864.129s6.571-.025,8.864-.129a15.778,15.778,0,0,0,5.219-1,10.992,10.992,0,0,0,6.288-6.288,15.78,15.78,0,0,0,1-5.219c.1-2.293.129-3.025.129-8.864s-.025-6.571-.129-8.864ZM39,30.188a11.9,11.9,0,0,1-.74,3.992,7.12,7.12,0,0,1-4.08,4.08,11.9,11.9,0,0,1-3.992.74c-2.267.1-2.947.125-8.688.125S15.079,39.1,12.812,39a11.9,11.9,0,0,1-3.992-.74,6.663,6.663,0,0,1-2.472-1.609A6.66,6.66,0,0,1,4.739,34.18,11.9,11.9,0,0,1,4,30.188c-.1-2.267-.125-2.947-.125-8.688S3.9,15.079,4,12.812a11.9,11.9,0,0,1,.74-3.992A6.666,6.666,0,0,1,6.348,6.348,6.657,6.657,0,0,1,8.82,4.739,11.893,11.893,0,0,1,12.812,4c2.267-.1,2.947-.125,8.688-.125h0c5.741,0,6.421.022,8.688.126a11.9,11.9,0,0,1,3.992.74,6.666,6.666,0,0,1,2.472,1.608A6.657,6.657,0,0,1,38.26,8.82,11.885,11.885,0,0,1,39,12.812c.1,2.267.125,2.947.125,8.688S39.1,27.921,39,30.188Zm0,0" transform="translate(-259 587)"/><path class="a" d="M136.039,124.539a11.5,11.5,0,1,0,11.5,11.5A11.5,11.5,0,0,0,136.039,124.539Zm0,18.965a7.465,7.465,0,1,1,7.465-7.465A7.465,7.465,0,0,1,136.039,143.5Zm0,0" transform="translate(-374 472)"/><path class="a" d="M367.93,91.626a3,3,0,1,1-3-3A3,3,0,0,1,367.93,91.626Zm0,0" transform="translate(-590.637 505.609)"/></g></svg>