<svg xmlns="http://www.w3.org/2000/svg" width="49.842" height="39" viewBox="0 0 49.842 39"><defs><style>.a{fill:none;}.b{fill:#fff;}</style></defs><path class="a" d="M0,0H40.842V32H0Z" transform="translate(0 7)"/><path class="b" d="M13,24.021c-2.2,0-3.98,1.239-3.98,2.753S10.8,29.526,13,29.526s4-1.239,4-2.753S15.2,24.021,13,24.021ZM1,2V4.753H5L12.2,15.2,9.5,18.571A2.058,2.058,0,0,0,9,19.892c0,1.514,1.8,2.753,4,2.753H37V19.892H13.84c-.28,0-.5-.151-.5-.344l.06-.165,1.8-2.243H30.1a4.5,4.5,0,0,0,3.5-1.418L40.76,6.79A1.032,1.032,0,0,0,41,6.129c0-.757-.9-1.376-2-1.376H9.42L7.54,2H1ZM33,24.021c-2.2,0-3.98,1.239-3.98,2.753S30.8,29.526,33,29.526s4-1.239,4-2.753S35.2,24.021,33,24.021Z" transform="translate(8.842 -2)"/></svg>