<svg xmlns="http://www.w3.org/2000/svg" width="29.701" height="28.5" viewBox="0 0 29.701 28.5"><defs><style>.a{fill:#fff;}</style></defs><path class="a" d="M29.7,51.374a11.216,11.216,0,0,1-3.508,1.136,7.065,7.065,0,0,0,2.679-3.975,11.111,11.111,0,0,1-3.861,1.741A5.713,5.713,0,0,0,20.562,48c-3.371,0-6.085,3.231-6.085,7.193a8.7,8.7,0,0,0,.141,1.64A16.536,16.536,0,0,1,2.068,49.311a8.264,8.264,0,0,0-.833,3.635,7.618,7.618,0,0,0,2.7,5.976,5.327,5.327,0,0,1-2.751-.886v.079c0,3.495,2.111,6.4,4.878,7.066a5.2,5.2,0,0,1-1.6.237A4.585,4.585,0,0,1,3.317,65.3c.789,2.848,3.028,4.941,5.69,5.009a11.105,11.105,0,0,1-7.55,3.067A9.68,9.68,0,0,1,0,73.273,15.3,15.3,0,0,0,9.341,76.5c11.2,0,17.331-10.962,17.331-20.463,0-.318-.009-.625-.022-.93A13.586,13.586,0,0,0,29.7,51.374Z" transform="translate(0 -48)"/></svg>