<svg xmlns="http://www.w3.org/2000/svg" width="150" height="150" viewBox="0 0 150 150"><defs><style>.a{fill:#df7477;}</style></defs><g transform="translate(-794 -163)"><circle class="a" cx="75" cy="75" r="75" transform="translate(794 163)"/><g transform="translate(791.505 193.001)"><g transform="translate(39.995)"><path d="M79.012,6.039V1.5a1.5,1.5,0,1,0-3,0V6.038A37.5,37.5,0,0,0,40,43.61v.021a1.5,1.5,0,1,0,3,0A7.508,7.508,0,0,1,50.47,36.1H50.5A7.508,7.508,0,0,1,58,43.578a1.5,1.5,0,0,0,2.084,1.38,1.144,1.144,0,0,0,.126-.086,1.96,1.96,0,0,0,.669-.714,1.557,1.557,0,0,0,.051-.254,1.5,1.5,0,0,0,.066-.327,7.5,7.5,0,0,1,7.475-7.526h.025a7.512,7.512,0,0,1,1.491.15c.119.024.23.075.345.1a7.545,7.545,0,0,1,1.059.329c.128.054.243.135.368.2A4.981,4.981,0,0,1,73.3,37.845c.159.134.333.249.48.4a7.512,7.512,0,0,1,.921,1.112,7.362,7.362,0,0,1,.533.975c.049.1.117.2.162.3a7.491,7.491,0,0,1,.341,1.085c.027.108.076.21.1.321a7.547,7.547,0,0,1,.15,1.5l.123,36A10.5,10.5,0,0,0,86.605,90h.057A10.512,10.512,0,0,0,97.127,79.463l-.01-3a1.5,1.5,0,0,0-3,0l.01,3a7.5,7.5,0,0,1-15.007.057V79.5L79,43.5a7.508,7.508,0,0,1,7.475-7.527c.087,0,.168.021.254.022a7.442,7.442,0,0,1,5.052,2.157c.06.06.1.132.161.194a6.824,6.824,0,0,1,1.428,2.136c0,.015.018.03.024.045a7.424,7.424,0,0,1,.405,1.278c.012.047.033.09.043.138a7.439,7.439,0,0,1,.159,1.5,1.5,1.5,0,0,0,1.5,1.5,1.515,1.515,0,0,0,.584-.12,1.144,1.144,0,0,0,.126-.086,1.96,1.96,0,0,0,.669-.714,1.557,1.557,0,0,0,.051-.254,1.494,1.494,0,0,0,.066-.327,7.508,7.508,0,0,1,7.475-7.527h.027a7.508,7.508,0,0,1,7.5,7.475,1.5,1.5,0,1,0,3,0A37.54,37.54,0,0,0,79.012,6.039ZM58.3,36.6c-.138-.15-.261-.311-.407-.45A10.424,10.424,0,0,0,50.5,33.1H50.46a10.455,10.455,0,0,0-6.512,2.3,34.5,34.5,0,0,1,24.278-25.1C63.056,15.5,59.346,25.051,58.3,36.6ZM93.33,35.515c-.128-.11-.257-.218-.389-.323s-.257-.191-.387-.284-.281-.2-.425-.291-.261-.15-.392-.233c-.15-.09-.312-.182-.471-.264-.117-.06-.239-.113-.359-.168-.183-.086-.365-.173-.552-.246-.077-.032-.158-.056-.237-.084a10.228,10.228,0,0,0-3.389-.642c-.078,0-.15-.012-.234-.012h-.036a10.557,10.557,0,0,0-1.274.09l.006,0c-.111.013-.221.033-.33.049-.332.053-.66.12-.983.2-.086.022-.171.041-.255.064a10.346,10.346,0,0,0-2.321.98c-.064.036-.126.075-.189.113q-.441.266-.857.576c-.074.054-.15.107-.218.162a10.932,10.932,0,0,0-.848.738c-.027.027-.057.051-.084.078s-.039.033-.057.051a11.011,11.011,0,0,0-.75.858c-.018.024-.041.045-.06.069a10.685,10.685,0,0,0-.75,1.089,11.025,11.025,0,0,0-1.58-2c-.017-.016-.036-.032-.054-.048l-.066-.062a10.915,10.915,0,0,0-.864-.75c-.072-.056-.15-.106-.219-.161q-.414-.3-.854-.567l-.192-.114a10.4,10.4,0,0,0-2.316-.963c-.084-.024-.171-.042-.257-.063q-.483-.122-.978-.2c-.11-.017-.219-.035-.33-.048a10.456,10.456,0,0,0-1.268-.084h-.036a10.225,10.225,0,0,0-1.256.087c-.117.015-.231.033-.347.051q-.487.076-.962.2c-.089.022-.177.041-.264.064a10.357,10.357,0,0,0-1.13.393c-.087.036-.17.078-.255.116q-.437.194-.851.426c-.1.053-.192.105-.287.162a10.472,10.472,0,0,0-.986.662l-.033.027q-.352.271-.683.572C63.095,20.675,69.712,9.027,77.378,9H77.4c7.661,0,14.339,11.592,16.126,26.68C93.466,35.622,93.4,35.571,93.33,35.515Zm11.132-2.607.006.006a10.458,10.458,0,0,0-7.815,3.567c-1.125-11.55-4.91-21.092-10.125-26.266a34.623,34.623,0,0,1,24.451,24.937A10.59,10.59,0,0,0,104.462,32.908Z" transform="translate(-39.995)"/></g></g></g></svg>