<svg xmlns="http://www.w3.org/2000/svg" width="27.029" height="28.882" viewBox="0 0 27.029 28.882"><defs><style>.a{fill:none;}.a,.b{fill-rule:evenodd;}.b{fill:#fff;}</style></defs><g transform="translate(0 4.882)"><path class="a" d="M0,0H24V24H0Z"/><g transform="translate(0 -7)"><path class="b" d="M10.853,24.217l3.926-4.572a10.313,10.313,0,0,0-1.309-.093C9.976,19.551,3,21.635,3,25.772v3.11H14.779Zm2.618-7.776c2.892,0,5.235-2.784,5.235-6.221S16.362,4,13.47,4,8.235,6.784,8.235,10.221s2.343,6.221,5.235,6.221" transform="translate(0 -1.882)"/><path class="b" d="M16.337,22.5,12,18.125l1.75-1.763,2.587,2.6L22.75,12.5l1.75,1.763Z" transform="translate(2.529 5)"/></g></g></svg>