<svg xmlns="http://www.w3.org/2000/svg" width="57.527" height="40" viewBox="0 0 57.527 40"><defs><style>.a{fill:#f3f2f2;}</style></defs><g transform="translate(0)"><path class="a" d="M54.8,2.739A9.262,9.262,0,0,0,48.2,0H9.325A9.335,9.335,0,0,0,0,9.325v21.35A9.335,9.335,0,0,0,9.325,40H48.153a9.34,9.34,0,0,0,9.325-9.3l.049-21.35A9.263,9.263,0,0,0,54.8,2.739Zm-.7,27.95a5.962,5.962,0,0,1-5.953,5.939H9.325a5.96,5.96,0,0,1-5.953-5.953V9.325A5.96,5.96,0,0,1,9.325,3.372H48.2a5.953,5.953,0,0,1,5.953,5.966Zm0,0"/><path class="a" d="M193.547,97.532l17-11.211-17-11.212Zm3.27-16.349,7.791,5.138-7.791,5.138Zm0,0" transform="translate(-169.985 -66)"/></g></svg>